<svg xmlns="http://www.w3.org/2000/svg" viewBox="0 0 560 400" fill="none" aria-hidden="true">
  <rect width="560" height="400" fill="#f2f2f2"/>
  <circle cx="260" cy="200" r="118" fill="#d8dee6" stroke="#b8c4d4" stroke-width="2"/>
  <ellipse cx="260" cy="200" rx="118" ry="44" stroke="#9eb0c8" stroke-width="1.2" fill="none"/>
  <ellipse cx="260" cy="200" rx="44" ry="118" stroke="#9eb0c8" stroke-width="1.2" fill="none"/>
  <path d="M142 200h236M260 82v236" stroke="#9eb0c8" stroke-width="1"/>
  <path d="M180 128c40 24 80 36 160 36s120-12 160-36" stroke="#a8b8cc" stroke-width="1" fill="none"/>
  <path d="M180 272c40-24 80-36 160-36s120 12 160 36" stroke="#a8b8cc" stroke-width="1" fill="none"/>
  <!-- simplified continents -->
  <path fill="#9aa8b8" opacity="0.85" d="M200 160c12-8 28-6 38 4 10 12 8 28-4 38-14 12-34 10-46-6-10-14-6-32 12-36zm95-35c18-4 32 8 36 24 4 18-8 34-26 38-20 4-38-10-40-30-2-18 12-32 30-32zm-40 95c16 2 28 14 30 30 2 20-14 36-34 36-18 0-32-14-34-32-2-20 14-36 38-34z"/>
  <!-- dotted routes -->
  <path d="M120 120c60 20 100 80 200 140" stroke="#7a8a9e" stroke-width="1.5" stroke-dasharray="4 6" fill="none"/>
  <path d="M400 90c-50 40-90 100-160 150" stroke="#7a8a9e" stroke-width="1.5" stroke-dasharray="4 6" fill="none"/>
  <!-- planes -->
  <g fill="#2c3e50">
    <path d="M395 118l18 6-4 10-14-8v-8zm-210 52l14-4 4 12-12 6-6-14z"/>
    <path d="M330 248l20-2 2 8-18 8-4-14z"/>
  </g>
</svg>
